HIERARCHY
ROOT Hips
{
    OFFSET 0.000000 0.000000 0.000000
    CHANNELS 6 Xposition Yposition Zposition Zrotation Xrotation Yrotation
    JOINT Spine
    {
        OFFSET -0.000000 14.077055 0.000000
        CHANNELS 3 Zrotation Xrotation Yrotation
        JOINT Spine1
        {
            OFFSET -0.000000 39.610336 0.000000
            CHANNELS 3 Zrotation Xrotation Yrotation
            JOINT Neck
            {
                OFFSET -0.000000 39.447666 3.586151
                CHANNELS 3 Zrotation Xrotation Yrotation
                JOINT Head
                {
                    OFFSET -0.000000 24.033997 -3.433428
                    CHANNELS 3 Zrotation Xrotation Yrotation
                    End Site
                    {
                        OFFSET -0.000000 34.334282 0.000000
                    }
                }
            }
            JOINT LeftShoulder
            {
                OFFSET 6.845375 37.474274 -0.251068
                CHANNELS 3 Zrotation Xrotation Yrotation
                JOINT LeftArm
                {
                    OFFSET 16.779110 0.000000 0.000000
                    CHANNELS 3 Zrotation Xrotation Yrotation
                    JOINT LeftForeArm
                    {
                        OFFSET 54.865921 0.000000 0.000000
                        CHANNELS 3 Zrotation Xrotation Yrotation
                        JOINT LeftHand
                        {
                            OFFSET 44.512962 0.000000 0.000000
                            CHANNELS 3 Zrotation Xrotation Yrotation
                            End Site
                            {
                                OFFSET 25.750711 0.000000 0.000000
                            }
                        }
                    }
                }
            }
            JOINT RightShoulder
            {
                OFFSET -6.886993 37.474274 -0.251068
                CHANNELS 3 Zrotation Xrotation Yrotation
                JOINT RightArm
                {
                    OFFSET -16.779110 0.000000 0.000000
                    CHANNELS 3 Zrotation Xrotation Yrotation
                    JOINT RightForeArm
                    {
                        OFFSET -54.865921 0.000000 0.000000
                        CHANNELS 3 Zrotation Xrotation Yrotation
                        JOINT RightHand
                        {
                            OFFSET -44.512962 0.000000 0.000000
                            CHANNELS 3 Zrotation Xrotation Yrotation
                            End Site
                            {
                                OFFSET -25.750711 0.000000 0.000000
                            }
                        }
                    }
                }
            }
        }
    }
    JOINT LeftUpLeg
    {
        OFFSET 17.167141 0.000000 0.000000
        CHANNELS 3 Zrotation Xrotation Yrotation
        JOINT LeftLeg
        {
            OFFSET -0.000000 -85.710365 0.000000
            CHANNELS 3 Zrotation Xrotation Yrotation
            JOINT LeftFoot
            {
                OFFSET -0.000000 -63.982941 0.000000
                CHANNELS 3 Zrotation Xrotation Yrotation
                JOINT LeftToeBase
                {
                    OFFSET -0.000000 -11.158641 25.750711
                    CHANNELS 3 Zrotation Xrotation Yrotation
                    End Site
                    {
                        OFFSET -0.000000 0.000000 6.866856
                    }
                }
            }
        }
    }
    JOINT RightUpLeg
    {
        OFFSET -17.167141 0.000000 0.000000
        CHANNELS 3 Zrotation Xrotation Yrotation
        JOINT RightLeg
        {
            OFFSET -0.000000 -85.710365 0.000000
            CHANNELS 3 Zrotation Xrotation Yrotation
            JOINT RightFoot
            {
                OFFSET -0.000000 -63.982941 0.000000
                CHANNELS 3 Zrotation Xrotation Yrotation
                JOINT RightToeBase
                {
                    OFFSET -0.000000 -11.158641 25.750711
                    CHANNELS 3 Zrotation Xrotation Yrotation
                    End Site
                    {
                        OFFSET -0.000000 0.000000 6.866856
                    }
                }
            }
        }
    }
}
MOTION
Frames:    11
Frame Time:    0.008333
7.018998    160.041061    -115.629105    -3.867576    -4.359054    45.890949    -1.312572    -8.625657    -5.696846    3.483727    9.462347    -2.167861    -8.296890    13.270553    -12.498765    16.397783    -29.952269    -6.282592    -6.686714    3.107103    -7.435248    5.427291    71.407761    -61.485340    41.009094    -31.351919    -85.171547    18.621355    6.839813    -7.096150    -5.563858    3.602285    4.821280    43.976131    26.797688    25.811098    -43.096062    -48.826942    81.478096    -38.588001    -15.833332    1.506570    18.248693    8.537026    3.463631    -6.720726    13.853532    9.602652    -10.040458    -20.576536    9.741051    0.000000    0.000000    0.000000    -11.622709    -11.330587    -16.087683    7.455679    10.006790    -10.972738    4.697143    6.679368    -12.213435    0.000000    0.000000    0.000000    
6.985516    160.043152    -115.596680    -3.887647    -4.338796    45.776585    -1.328955    -8.628027    -5.732889    3.523504    9.426467    -2.181620    -8.273490    13.313917    -12.431922    16.345520    -29.975742    -6.234271    -6.665569    3.094316    -7.428673    5.345766    71.385391    -61.431931    40.974548    -31.337288    -85.205147    18.673712    6.848872    -7.035839    -5.581563    3.607474    4.843195    43.955978    26.880541    25.749155    -43.051441    -48.769089    81.487915    -38.550098    -15.824538    1.611402    18.228107    8.583877    3.504739    -6.697157    13.776229    9.692674    -10.091670    -20.533154    9.724335    0.000000    0.000000    0.000000    -11.601592    -11.398580    -16.036842    7.478940    10.026656    -10.959770    4.677770    6.688544    -12.198753    0.000000    0.000000    0.000000    
6.952437    160.043747    -115.561043    -3.896484    -4.326185    45.652473    -1.330739    -8.612358    -5.762034    3.531455    9.386254    -2.190641    -8.202228    13.346385    -12.357228    16.240782    -30.009539    -6.197723    -6.627054    3.088142    -7.401228    5.375842    71.383476    -61.487339    40.984184    -31.358809    -85.208351    18.724566    6.862323    -6.866467    -5.599380    3.590389    4.863520    43.993908    26.963236    25.649853    -42.997311    -48.702934    81.527634    -38.335133    -15.799983    1.749507    18.206945    8.646548    3.578012    -6.667186    13.710625    9.710917    -10.104922    -20.497103    9.742774    0.000000    0.000000    0.000000    -11.582902    -11.455562    -15.974506    7.498696    10.058093    -10.924223    4.680475    6.675788    -12.172984    0.000000    0.000000    0.000000    
6.917134    160.041077    -115.530800    -3.917816    -4.301530    45.534107    -1.309734    -8.604332    -5.801733    3.517725    9.338004    -2.201727    -8.202044    13.355334    -12.280094    16.224800    -30.006983    -6.124458    -6.595786    3.086608    -7.356325    5.375431    71.372169    -61.494915    41.011982    -31.352919    -85.218536    18.790241    6.927972    -6.732813    -5.599959    3.589323    4.848858    44.023891    26.976440    25.584511    -42.717991    -48.569168    81.799156    -38.173637    -15.745941    1.878895    18.189333    8.685631    3.628403    -6.658141    13.645277    9.790749    -10.141883    -20.463573    9.744960    0.000000    0.000000    0.000000    -11.567310    -11.531668    -15.951591    7.519917    10.098585    -10.831234    4.648896    6.646790    -12.177486    0.000000    0.000000    0.000000    
6.883482    160.038895    -115.501678    -3.922004    -4.280031    45.419518    -1.300946    -8.573278    -5.840768    3.521492    9.288605    -2.213817    -8.220617    13.338509    -12.211726    16.190857    -29.989151    -6.067187    -6.594414    3.060711    -7.293117    5.270625    71.353165    -61.371979    41.221233    -31.314047    -84.881165    18.803295    6.752295    -7.969737    -5.630747    3.565421    4.833259    44.078407    27.021309    25.519926    -42.472237    -48.459679    82.052391    -37.991993    -15.699637    1.990544    18.160461    8.741746    3.656832    -6.640205    13.568930    9.865837    -10.169476    -20.425922    9.748804    0.000000    0.000000    0.000000    -11.567936    -11.592391    -15.931710    7.551193    10.138677    -10.725672    4.628609    6.632094    -12.196200    0.000000    0.000000    0.000000    
6.845500    160.034409    -115.476166    -3.925109    -4.265612    45.315266    -1.301176    -8.534184    -5.877382    3.535847    9.239060    -2.225667    -8.173426    13.292232    -12.143990    16.067335    -29.940620    -6.050136    -6.564246    3.066068    -7.275867    5.192077    71.289932    -61.335182    41.159172    -31.313688    -84.923248    18.737272    6.708108    -8.025794    -5.651777    3.568750    4.826715    44.007061    27.210745    25.522255    -42.455215    -48.484928    82.048126    -37.962593    -15.764256    2.010903    18.143265    8.789682    3.704513    -6.629243    13.517392    9.901432    -10.188525    -20.396046    9.757690    0.000000    0.000000    0.000000    -11.564878    -11.647379    -15.918017    7.592912    10.175877    -10.655235    4.560323    6.614707    -12.189611    0.000000    0.000000    0.000000    
6.798192    160.033310    -115.452370    -3.932635    -4.247367    45.211380    -1.316097    -8.502790    -5.899219    3.583965    9.196836    -2.235174    -8.139382    13.268806    -12.083763    15.947291    -29.936089    -6.034817    -6.573613    3.037573    -7.305616    5.173072    71.287582    -61.347054    40.885147    -31.414467    -85.302048    18.592819    6.742915    -6.981305    -5.674820    3.559896    4.793400    43.897732    27.448475    25.547102    -42.509102    -48.533993    81.979263    -37.850231    -15.806633    1.952300    18.124687    8.823692    3.748821    -6.614141    13.473766    9.973112    -10.226732    -20.363895    9.746548    0.000000    0.000000    0.000000    -11.558032    -11.710580    -15.921461    7.616247    10.217494    -10.586843    4.538065    6.598011    -12.150604    0.000000    0.000000    0.000000    
6.749697    160.026901    -115.429092    -3.935523    -4.228093    45.111897    -1.327724    -8.459845    -5.921332    3.606469    9.123593    -2.241765    -8.011989    13.305308    -12.009116    15.731759    -29.997622    -6.040781    -6.547090    3.053784    -7.318089    5.078008    71.234612    -61.302170    40.899567    -31.389616    -85.295174    18.653582    6.797518    -6.873537    -5.667913    3.591849    4.795055    43.780483    27.664598    25.552990    -42.684017    -48.574345    81.790192    -37.772873    -15.814538    1.952679    18.108313    8.852684    3.792363    -6.606704    13.446344    10.012248    -10.237359    -20.338552    9.754808    0.000000    0.000000    0.000000    -11.552372    -11.777587    -15.959926    7.617525    10.277711    -10.521825    4.513349    6.576259    -12.073576    0.000000    0.000000    0.000000    
6.702349    160.021133    -115.413521    -3.948310    -4.202565    45.023609    -1.310245    -8.429926    -5.947284    3.561212    9.089767    -2.245984    -7.797836    13.240997    -11.939669    15.451961    -30.010118    -6.079530    -6.439874    3.010372    -7.275002    5.227450    71.176224    -61.570530    40.931053    -31.335499    -85.269852    18.670391    6.895971    -6.757622    -5.643442    3.567645    4.758152    43.772644    27.766537    25.490412    -42.607723    -48.510834    81.877266    -37.646275    -15.751284    1.993547    18.089371    8.851537    3.820879    -6.596481    13.444213    10.103968    -10.258944    -20.331329    9.728606    0.000000    0.000000    0.000000    -11.556085    -11.845332    -15.979775    7.654354    10.319041    -10.448473    4.469533    6.557590    -12.051892    0.000000    0.000000    0.000000    
6.649476    160.013229    -115.397659    -3.958884    -4.178990    44.930183    -1.291542    -8.375701    -5.977723    3.558572    9.009970    -2.253917    -7.721703    13.243297    -11.866720    15.303843    -30.060186    -6.058133    -6.438109    2.974230    -7.249499    5.239876    71.169777    -61.598438    40.913212    -31.343445    -85.285126    18.666853    6.874771    -6.776065    -5.654644    3.570044    4.710723    43.811165    27.844948    25.431791    -42.546490    -48.401894    81.961502    -37.398617    -15.651381    2.173821    18.076813    8.848425    3.838084    -6.600667    13.455806    10.150660    -10.266734    -20.329363    9.762234    0.000000    0.000000    0.000000    -11.558115    -11.917879    -15.971711    7.688239    10.367904    -10.434363    4.436560    6.544113    -11.991875    0.000000    0.000000    0.000000    
6.592232    160.006805    -115.385147    -3.974490    -4.150391    44.837372    -1.289732    -8.345105    -6.012359    3.577588    8.969938    -2.265709    -7.625674    13.220118    -11.785865    15.122796    -30.107050    -6.040947    -6.416280    2.958483    -7.221832    5.320288    71.149986    -61.716782    40.974369    -31.392733    -85.205017    18.602650    6.816852    -6.864267    -5.679295    3.567091    4.684527    43.821877    27.929932    25.387629    -42.480297    -48.319458    82.049171    -37.264862    -15.570824    2.280722    18.069838    8.827711    3.882557    -6.608405    13.490589    10.136152    -10.253222    -20.345564    9.830826    0.000000    0.000000    0.000000    -11.566019    -11.999778    -15.991617    7.729349    10.425783    -10.349107    4.405557    6.530810    -11.973477    0.000000    0.000000    0.000000    
